<svg width="18" height="18" viewBox="0 0 18 18" fill="none" xmlns="http://www.w3.org/2000/svg">
<g clip-path="url(#clip0_410_2)">
<mask id="mask0_410_2" style="mask-type:luminance" maskUnits="userSpaceOnUse" x="0" y="0" width="18" height="18">
<path d="M18 0H0V18H18V0Z" fill="white"/>
</mask>
<g mask="url(#mask0_410_2)">
<mask id="mask1_410_2" style="mask-type:luminance" maskUnits="userSpaceOnUse" x="0" y="0" width="18" height="18">
<path d="M18 0H0V18H18V0Z" fill="white"/>
</mask>
<g mask="url(#mask1_410_2)">
<path d="M14 0H4C1.79086 0 0 1.79086 0 4V14C0 16.2091 1.79086 18 4 18H14C16.2091 18 18 16.2091 18 14V4C18 1.79086 16.2091 0 14 0Z" fill="#A7AAAD"/>
</g>
</g>
<path d="M2.43 9.15C2.43 9.72933 2.55467 10.2463 2.804 10.701C3.06067 11.1557 3.409 11.515 3.849 11.779C4.289 12.043 4.78767 12.175 5.345 12.175C5.90967 12.175 6.40833 12.043 6.841 11.779C7.281 11.515 7.62567 11.1557 7.875 10.701C8.13167 10.2463 8.26 9.72933 8.26 9.15C8.26 8.57067 8.13167 8.05367 7.875 7.599C7.62567 7.14433 7.281 6.785 6.841 6.521C6.40833 6.257 5.90967 6.125 5.345 6.125C4.78767 6.125 4.289 6.257 3.849 6.521C3.409 6.785 3.06067 7.14433 2.804 7.599C2.55467 8.05367 2.43 8.57067 2.43 9.15ZM1.44 9.15C1.44 8.58533 1.53533 8.06467 1.726 7.588C1.924 7.104 2.199 6.686 2.551 6.334C2.903 5.97467 3.31733 5.696 3.794 5.498C4.27067 5.29267 4.78767 5.19 5.345 5.19C5.90967 5.19 6.42667 5.29267 6.896 5.498C7.37267 5.696 7.787 5.97467 8.139 6.334C8.491 6.686 8.76233 7.104 8.953 7.588C9.151 8.06467 9.25 8.58533 9.25 9.15C9.25 9.70733 9.151 10.228 8.953 10.712C8.76233 11.196 8.491 11.6177 8.139 11.977C7.787 12.329 7.37267 12.6077 6.896 12.813C6.42667 13.011 5.90967 13.11 5.345 13.11C4.78767 13.11 4.27067 13.011 3.794 12.813C3.31733 12.6077 2.903 12.329 2.551 11.977C2.199 11.6177 1.924 11.196 1.726 10.712C1.53533 10.228 1.44 9.70733 1.44 9.15ZM5.169 9.7H6.379L9.679 13H8.469L5.169 9.7ZM11.9454 9.205H12.9904L15.7404 13H14.5854L11.9454 9.205ZM10.5704 5.3H11.5054V13H10.5704V5.3ZM11.0874 6.125V5.3H12.6604C13.1591 5.3 13.6028 5.39533 13.9914 5.586C14.3874 5.76933 14.6991 6.03333 14.9264 6.378C15.1611 6.72267 15.2784 7.13333 15.2784 7.61C15.2784 8.07933 15.1611 8.49 14.9264 8.842C14.6991 9.18667 14.3874 9.45433 13.9914 9.645C13.6028 9.82833 13.1591 9.92 12.6604 9.92H11.0874V9.095H12.6604C12.9904 9.095 13.2801 9.03633 13.5294 8.919C13.7861 8.80167 13.9841 8.633 14.1234 8.413C14.2701 8.193 14.3434 7.92533 14.3434 7.61C14.3434 7.29467 14.2701 7.027 14.1234 6.807C13.9841 6.587 13.7861 6.41833 13.5294 6.301C13.2801 6.18367 12.9904 6.125 12.6604 6.125H11.0874Z" fill="black"/>
</g>
<defs>
<clipPath id="clip0_410_2">
<rect width="18" height="18" fill="white"/>
</clipPath>
</defs>
</svg>
